<svg xmlns="http://www.w3.org/2000/svg" width="1800" height="1200" viewBox="0 0 1800 1200" role="img" aria-label="Research workspace">
  <defs>
    <linearGradient id="wall" x1="0" y1="0" x2="1" y2="1">
      <stop offset="0" stop-color="#17324d"/>
      <stop offset="0.48" stop-color="#1f5b62"/>
      <stop offset="1" stop-color="#ecb84b"/>
    </linearGradient>
    <linearGradient id="desk" x1="0" y1="0" x2="1" y2="0">
      <stop offset="0" stop-color="#243447"/>
      <stop offset="1" stop-color="#1d2838"/>
    </linearGradient>
    <filter id="softShadow" x="-20%" y="-20%" width="140%" height="140%">
      <feDropShadow dx="0" dy="24" stdDeviation="24" flood-color="#07131f" flood-opacity="0.28"/>
    </filter>
  </defs>
  <rect width="1800" height="1200" fill="url(#wall)"/>
  <path d="M0 0h1800v1200H0z" fill="#ffffff" opacity="0.04"/>
  <path d="M0 690c220-72 407-84 586-34 188 52 322 162 518 171 225 11 364-118 696-140v513H0z" fill="#f8fafc" opacity="0.09"/>
  <path d="M135 290h475c38 0 69 31 69 69v216H66V359c0-38 31-69 69-69z" fill="#edf2f7" opacity="0.88" filter="url(#softShadow)"/>
  <rect x="112" y="340" width="520" height="284" rx="14" fill="#12243a"/>
  <path d="M148 382h206v22H148zM148 430h312v16H148zM148 466h258v16H148zM148 526h432v18H148zM148 566h365v18H148z" fill="#7dd3fc" opacity="0.8"/>
  <circle cx="545" cy="435" r="45" fill="#34d399" opacity="0.85"/>
  <path d="M521 438l19 18 31-45" fill="none" stroke="#f8fafc" stroke-width="12" stroke-linecap="round" stroke-linejoin="round"/>
  <g filter="url(#softShadow)">
    <rect x="1090" y="252" width="488" height="354" rx="24" fill="#f8fafc" opacity="0.9"/>
    <rect x="1142" y="306" width="150" height="178" rx="12" fill="#dbeafe"/>
    <rect x="1328" y="306" width="186" height="26" rx="13" fill="#0f766e" opacity="0.78"/>
    <rect x="1328" y="365" width="134" height="18" rx="9" fill="#334155" opacity="0.28"/>
    <rect x="1328" y="407" width="150" height="18" rx="9" fill="#334155" opacity="0.28"/>
    <rect x="1328" y="449" width="108" height="18" rx="9" fill="#334155" opacity="0.28"/>
    <circle cx="1217" cy="395" r="48" fill="#0284c7" opacity="0.82"/>
    <path d="M1174 486c23-31 58-49 99-52 38 8 67 25 90 52" fill="none" stroke="#f59e0b" stroke-width="18" stroke-linecap="round"/>
  </g>
  <rect x="0" y="780" width="1800" height="420" fill="url(#desk)"/>
  <g filter="url(#softShadow)">
    <rect x="318" y="758" width="378" height="226" rx="18" fill="#f8fafc"/>
    <rect x="350" y="798" width="220" height="18" rx="9" fill="#475569" opacity="0.3"/>
    <rect x="350" y="846" width="286" height="14" rx="7" fill="#0f766e" opacity="0.55"/>
    <rect x="350" y="882" width="246" height="14" rx="7" fill="#0f766e" opacity="0.35"/>
    <rect x="350" y="918" width="296" height="14" rx="7" fill="#0f766e" opacity="0.25"/>
  </g>
  <g filter="url(#softShadow)">
    <rect x="840" y="720" width="184" height="288" rx="36" fill="#dbeafe"/>
    <rect x="895" y="656" width="74" height="132" rx="37" fill="#94a3b8"/>
    <rect x="885" y="621" width="94" height="46" rx="23" fill="#e2e8f0"/>
    <circle cx="932" cy="848" r="52" fill="#0f766e" opacity="0.62"/>
  </g>
  <g filter="url(#softShadow)">
    <rect x="1180" y="760" width="310" height="206" rx="18" fill="#e2e8f0"/>
    <rect x="1212" y="798" width="246" height="126" rx="12" fill="#12334d"/>
    <path d="M1236 878c38-54 73-54 104 0 31 54 66 54 104 0" fill="none" stroke="#fbbf24" stroke-width="12" stroke-linecap="round"/>
  </g>
</svg>
